<?xml version="1.0" standalone="no"?>
<!DOCTYPE svg PUBLIC "-//W3C//DTD SVG 20010904//EN"
 "http://www.w3.org/TR/2001/REC-SVG-20010904/DTD/svg10.dtd">
<svg version="1.0" xmlns="http://www.w3.org/2000/svg"
 width="512.000000pt" height="512.000000pt" viewBox="0 0 512.000000 512.000000"
 preserveAspectRatio="xMidYMid meet">
<metadata>
Created by potrace 1.11, written by Peter Selinger 2001-2013
</metadata>
<g transform="translate(0.000000,512.000000) scale(0.100000,-0.100000)"
fill="#000000" stroke="none">
<path d="M2457 5114 c-1 -1 -45 -4 -97 -8 -280 -20 -593 -100 -850 -218 -115
-53 -125 -58 -140 -68 -16 -10 -200 -119 -228 -135 -22 -13 -77 -54 -167 -125
-413 -325 -713 -770 -864 -1280 -17 -57 -34 -115 -36 -130 -3 -14 -7 -36 -11
-50 -13 -56 -24 -113 -29 -158 -4 -26 -8 -58 -11 -72 -17 -100 -22 -358 -11
-510 25 -323 118 -663 258 -943 386 -768 1111 -1284 1969 -1401 104 -15 591
-16 650 -3 14 4 57 11 95 17 470 74 947 306 1305 635 345 318 589 704 725
1150 46 151 73 284 95 460 11 93 10 480 -1 580 -55 479 -263 959 -579 1340
-433 520 -1064 850 -1740 911 -67 6 -327 12 -333 8z"/>
</g>
</svg>
